<svg xmlns="http://www.w3.org/2000/svg" viewBox="0 0 371.63 300.16"><defs><style>.cls-1{fill:#ffde17;}.cls-2{fill:#00aeef;}.cls-3{fill:#fbb040;}.cls-4{fill:#8dc63f;}.cls-5{fill:none;stroke:#231f20;stroke-miterlimit:10;}.cls-6,.cls-8{fill:#231f20;}.cls-7{fill:#fff;}.cls-8{font-size:10px;font-family:BanglaMN, Bangla MN;}.cls-9{letter-spacing:-0.01em;}.cls-10{letter-spacing:-0.02em;}.cls-11{letter-spacing:0em;}.cls-12{letter-spacing:0.01em;}.cls-13{letter-spacing:-0.01em;}.cls-14{letter-spacing:-0.02em;}</style></defs><title>Asset 1</title><g id="Layer_2" data-name="Layer 2"><g id="Layer_1-2" data-name="Layer 1"><rect class="cls-1" x="170" y="15.52" width="132.48" height="132.48"/><rect class="cls-2" x="37.52" y="15.52" width="132.48" height="132.48"/><rect class="cls-3" x="170" y="148" width="132.48" height="132.48"/><rect class="cls-4" x="37.52" y="148" width="132.48" height="132.48"/><line class="cls-5" x1="170" y1="274.03" x2="170" y2="21.98"/><polygon class="cls-6" points="173.33 269.03 170 272.97 166.68 269.03 170 280.49 173.33 269.03"/><polygon class="cls-7" points="172.36 270.65 170 279.23 170 273.58 172.36 270.65"/><polygon class="cls-6" points="166.68 26.97 170 23.03 173.33 26.97 170 15.52 166.68 26.97"/><polygon class="cls-7" points="167.64 25.35 170 16.78 170 22.43 167.64 25.35"/><line class="cls-5" x1="43.98" y1="148" x2="296.02" y2="148"/><polygon class="cls-6" points="48.97 151.33 45.03 148 48.97 144.68 37.52 148 48.97 151.33"/><polygon class="cls-7" points="47.35 150.36 38.78 148 44.43 148 47.35 150.36"/><polygon class="cls-6" points="291.03 144.68 294.97 148 291.03 151.33 302.49 148 291.03 144.68"/><polygon class="cls-7" points="292.65 145.64 301.23 148 295.58 148 292.65 145.64"/><text class="cls-8" transform="translate(184.17 80.68)">Uni<tspan class="cls-9" x="18.18" y="0">v</tspan><tspan x="23.87" y="0">ersity Cente</tspan><tspan class="cls-10" x="90.68" y="0">r</tspan><tspan class="cls-11" x="95.44" y="0">ed</tspan><tspan x="19.33" y="12">Organization</tspan></text><text class="cls-8" transform="translate(45.37 80.68)">Community Cente<tspan class="cls-10" x="100.69" y="0">r</tspan><tspan x="105.45" y="0">ed</tspan><tspan x="24.33" y="12">Organization</tspan></text><text class="cls-8" transform="translate(176.68 206.44)">Student Ente<tspan class="cls-12" x="69.93" y="0">r</tspan><tspan x="74.95" y="0">tainment</tspan><tspan x="-0.34" y="12">Cente</tspan><tspan class="cls-10" x="33.17" y="12">r</tspan><tspan x="37.92" y="12">ed Organization</tspan></text><text class="cls-8" transform="translate(60.12 206.44)">Hob<tspan class="cls-13" x="22.37" y="0">b</tspan><tspan x="29.27" y="0">y Cente</tspan><tspan class="cls-10" x="71.18" y="0">r</tspan><tspan x="75.93" y="0">ed</tspan><tspan x="9.57" y="12">Organization</tspan></text><text class="cls-8" transform="translate(136.68 8.68)">P<tspan class="cls-14" x="6.58" y="0">r</tspan><tspan x="11.33" y="0">o</tspan><tspan class="cls-13" x="18.56" y="0">f</tspan><tspan x="22.61" y="0">essional</tspan></text><text class="cls-8" transform="translate(151.88 295.18)">Casual</text><text class="cls-8" transform="translate(307.27 150.51)">Mainst<tspan class="cls-10" x="36.27" y="0">r</tspan><tspan x="41.03" y="0">eam</tspan></text><text class="cls-8" transform="translate(0 150.51)">Niche</text></g></g></svg>